<?xml version="1.0" encoding="iso-8859-1"?>
<!-- Uploaded to: SVG Repo, www.svgrepo.com, Generator: SVG Repo Mixer Tools -->
<svg version="1.1" id="Layer_1" xmlns="http://www.w3.org/2000/svg" xmlns:xlink="http://www.w3.org/1999/xlink" 
	 viewBox="0 0 269.99 269.99" xml:space="preserve">
<g>
	<g style="opacity:0.2;">
		<circle cx="113.782" cy="135.566" r="94.745"/>
	</g>
	<g>
		<path d="M88.688,216.242c-16.829-5.246-31.951-15.956-42.58-30.161c-10.994-14.692-16.806-32.16-16.806-50.516
			c0-34.432,21.565-66.042,53.659-78.661l0.835,2.123c-31.23,12.278-52.213,43.036-52.213,76.538
			c0,36.18,23.221,67.726,57.784,78.499L88.688,216.242z"/>
	</g>
	<g>
		<path style="fill:#FFDE7D;" d="M130.205,72.323c0,0,14.296,14.775,14.593,40.382c0.002,0.267,0.004,0.537,0.004,0.807l8.5,4.973
			l-11.548,30.637l11.985,0.953l-6.021,11.132l2.144,4.589l-4.738,2.824l0.314,7.888l-7.242,1.296c0,0-1.372,12.182-15.712,28.488
			l-1.788,1.511c-9.564,7.857-20.715,13.853-32.9,17.434c8.37,2.459,17.227,3.785,26.392,3.785
			c51.615,0,93.457-41.842,93.457-93.456c0-51.615-41.842-93.457-93.457-93.457c-9.165,0-18.021,1.326-26.392,3.785
			c16.062,4.72,30.327,13.637,41.529,25.481L130.205,72.323z"/>
		<path d="M114.188,230.163c-9.075,0-18.062-1.289-26.713-3.831l-3.724-1.094l3.724-1.094c11.918-3.503,22.852-9.296,32.497-17.221
			l1.712-1.447c13.835-15.76,15.365-27.683,15.38-27.802l0.098-0.841l7.099-1.273l-0.301-7.573l4.435-2.643l-1.95-4.174
			l5.461-10.097l-11.751-0.934l11.743-31.156l-8.234-4.817l-0.004-1.452c-0.288-24.813-14.133-39.455-14.273-39.599l-0.895-0.963
			c-11.231-11.876-25.417-20.58-41.016-25.164l-3.724-1.094l3.724-1.094c8.652-2.542,17.641-3.831,26.713-3.831
			c52.16,0,94.598,42.436,94.598,94.598C208.785,187.727,166.348,230.163,114.188,230.163z M91.843,225.153
			c7.285,1.812,14.782,2.729,22.344,2.729c50.903,0,92.316-41.413,92.316-92.315c0-50.903-41.413-92.317-92.316-92.317
			c-7.561,0-15.061,0.917-22.348,2.729c14.519,4.934,27.699,13.389,38.315,24.613l0.888,0.954
			c0.581,0.6,14.599,15.381,14.896,41.146l0.002,0.164l8.77,5.13l-11.354,30.119l12.221,0.972l-6.581,12.167l2.338,5.003
			l-5.043,3.005l0.327,8.203l-7.424,1.329c-0.583,3.09-3.421,14.123-15.854,28.261l-0.12,0.118l-1.788,1.512
			C112.55,215.971,102.615,221.501,91.843,225.153z"/>
	</g>
	<g>
		<path style="fill:#FFDE7D;" d="M158.496,111.308c0,0,17.402,0,22.962,13.293"/>
		<path style="fill:#64426E;" d="M180.406,125.041c-5.196-12.422-21.744-12.593-21.911-12.593l0.001-2.281
			c0.742,0,18.228,0.159,24.015,13.994L180.406,125.041z"/>
	</g>
	<g>
		<path style="fill:#FFDE7D;" d="M172.757,121.217c0,0-5.801,4.511-13.052,5.478v-8.741l5.64,6.647"/>
		<path style="fill:#64426E;" d="M158.565,127.998v-13.151l7.515,8.856c3.557-1.526,5.941-3.358,5.977-3.387l1.401,1.801
			c-0.247,0.192-6.13,4.712-13.602,5.708L158.565,127.998z M160.846,121.061v4.291c1.033-0.203,2.028-0.475,2.972-0.788
			L160.846,121.061z"/>
	</g>
	<g>
		<rect x="112.642" width="2.281" height="32.183"/>
	</g>
	<g>
		<rect x="116.987" y="237.807" width="2.281" height="32.183"/>
	</g>
	<g>
		<rect x="122.654" y="250.58" transform="matrix(-0.1737 -0.9848 0.9848 -0.1737 -85.0475 432.08)" width="32.184" height="2.28"/>
	</g>
	<g>
		
			<rect x="142.574" y="244.86" transform="matrix(-0.3421 -0.9397 0.9397 -0.3421 -18.2137 479.2473)" width="32.185" height="2.28"/>
	</g>
	<g>
		<rect x="161.195" y="235.734" transform="matrix(-0.5 -0.866 0.866 -0.5 60.7941 508.8474)" width="32.182" height="2.281"/>
	</g>
	<g>
		<rect x="177.964" y="223.537" transform="matrix(-0.6428 -0.766 0.766 -0.6428 146.689 517.7532)" width="32.182" height="2.28"/>
	</g>
	<g>
		
			<rect x="192.342" y="208.636" transform="matrix(-0.7661 -0.6428 0.6428 -0.7661 233.2693 504.4535)" width="32.185" height="2.281"/>
	</g>
	<g>
		<rect x="203.909" y="191.424" transform="matrix(-0.866 -0.5 0.5 -0.866 314.2414 469.3322)" width="32.183" height="2.281"/>
	</g>
	<g>
		
			<rect x="212.328" y="172.489" transform="matrix(-0.9397 -0.342 0.342 -0.9397 383.6848 414.9097)" width="32.185" height="2.281"/>
	</g>
	<g>
		
			<rect x="217.331" y="152.363" transform="matrix(-0.9848 -0.1736 0.1736 -0.9848 436.6544 345.1993)" width="32.184" height="2.281"/>
	</g>
	<g>
		<rect x="218.768" y="131.683" width="32.185" height="2.281"/>
	</g>
	<g>
		
			<rect x="231.53" y="96.12" transform="matrix(-0.1738 -0.9848 0.9848 -0.1738 162.6029 360.8442)" width="2.281" height="32.186"/>
	</g>
	<g>
		
			<rect x="225.796" y="76.192" transform="matrix(-0.3417 -0.9398 0.9398 -0.3417 217.7509 337.0941)" width="2.28" height="32.184"/>
	</g>
	<g>
		
			<rect x="216.711" y="57.57" transform="matrix(-0.4997 -0.8662 0.8662 -0.4997 262.9056 299.1737)" width="2.281" height="32.184"/>
	</g>
	<g>
		
			<rect x="204.498" y="40.819" transform="matrix(-0.6424 -0.7664 0.7664 -0.6424 294.1208 251.0668)" width="2.28" height="32.185"/>
	</g>
	<g>
		<rect x="189.578" y="26.432" transform="matrix(-0.7659 -0.643 0.643 -0.7659 309.4436 197.7218)" width="2.28" height="32.184"/>
	</g>
	<g>
		<rect x="172.385" y="14.84" transform="matrix(-0.866 -0.5 0.5 -0.866 308.3356 144.4839)" width="2.281" height="32.183"/>
	</g>
	<g>
		
			<rect x="153.438" y="6.434" transform="matrix(-0.9398 -0.3417 0.3417 -0.9398 292.1551 96.5147)" width="2.281" height="32.184"/>
	</g>
	<g>
		<rect x="133.326" y="1.43" transform="matrix(-0.9849 -0.1732 0.1732 -0.9849 263.8669 58.0696)" width="2.281" height="32.185"/>
	</g>
</g>
</svg>